<?xml version="1.0" standalone="no"?>
<!DOCTYPE svg PUBLIC "-//W3C//DTD SVG 20010904//EN"
 "http://www.w3.org/TR/2001/REC-SVG-20010904/DTD/svg10.dtd">
<svg version="1.0" xmlns="http://www.w3.org/2000/svg"
 width="2138.000000pt" height="2138.000000pt" viewBox="0 0 2138.000000 2138.000000"
 preserveAspectRatio="xMidYMid meet">
<metadata>
Created by potrace 1.11, written by Peter Selinger 2001-2013
</metadata>
<g transform="translate(0.000000,2138.000000) scale(0.100000,-0.100000)"
fill="#000000" stroke="none">
<path d="M1849 20016 c-2 -2 -35 -7 -74 -11 -38 -4 -72 -8 -75 -10 -3 -1 -27
-6 -53 -9 -73 -10 -276 -71 -388 -117 -540 -221 -963 -678 -1142 -1234 -30
-92 -54 -183 -63 -240 -3 -22 -7 -42 -9 -45 -2 -3 -7 -41 -12 -85 -10 -98 -11
-15053 -1 -15147 16 -141 77 -386 124 -496 8 -17 21 -49 30 -70 103 -237 253
-453 439 -633 128 -123 147 -138 290 -234 239 -160 514 -268 787 -310 18 -3
62 -9 98 -14 71 -11 17767 -9 17810 1 14 3 68 13 120 22 243 42 509 151 739
304 336 222 605 554 751 927 41 104 98 303 106 369 4 28 8 54 10 57 2 3 7 34
11 70 10 84 10 15089 0 15154 -4 28 -10 66 -13 85 -72 469 -354 943 -744 1247
-263 205 -615 358 -916 399 -27 3 -58 9 -69 13 -21 6 -17749 14 -17756 7z
m4681 -1350 c25 -11 64 -39 87 -62 71 -74 72 -78 71 -594 -1 -425 -2 -458 -20
-500 -29 -68 -96 -130 -160 -147 -35 -10 -4929 -11 -4964 -1 -63 17 -127 70
-159 132 l-30 59 1 271 c1 264 10 371 36 404 6 6 7 12 4 12 -4 0 12 37 36 83
97 188 297 329 503 355 33 4 1070 7 2305 7 2197 0 2247 -1 2290 -19z m12940
10 c147 -32 255 -90 356 -190 109 -110 169 -230 192 -386 4 -30 7 -766 7
-1635 -1 -1569 -1 -1580 -21 -1625 -26 -58 -77 -108 -133 -133 -44 -19 -115
-20 -9181 -20 -9096 1 -9137 1 -9181 20 -59 26 -114 83 -136 142 -16 43 -18
103 -18 836 0 740 1 793 18 837 23 60 74 113 135 141 l47 21 2904 1 c1923 0
2906 3 2908 10 11 34 1283 1923 1304 1938 15 11 49 27 75 36 45 15 467 16
5369 15 2926 0 5336 -4 5355 -8z m-8505 -5000 c121 -8 182 -12 265 -21 54 -6
73 -8 155 -21 22 -3 51 -7 65 -9 14 -1 45 -6 70 -10 25 -4 54 -9 65 -11 11 -1
45 -8 75 -14 30 -6 66 -13 80 -16 14 -3 43 -10 65 -16 22 -6 45 -11 50 -12 77
-16 160 -39 335 -93 514 -159 1038 -427 1480 -757 638 -476 1145 -1083 1500
-1795 37 -75 80 -165 95 -201 15 -36 35 -83 45 -105 10 -22 32 -78 50 -125 17
-47 35 -94 40 -105 15 -34 100 -306 116 -370 1 -5 16 -66 33 -135 53 -220 86
-400 106 -590 4 -36 8 -72 10 -80 26 -138 26 -769 0 -1005 -3 -22 -7 -61 -10
-87 -15 -152 -66 -437 -101 -571 -9 -34 -17 -70 -19 -79 -29 -147 -176 -572
-261 -756 -13 -29 -24 -55 -24 -58 0 -11 -169 -341 -217 -424 -27 -47 -56 -96
-64 -110 -38 -65 -243 -365 -305 -445 -259 -337 -541 -623 -869 -883 -180
-143 -167 -134 -325 -239 -409 -273 -828 -474 -1295 -622 -151 -47 -418 -116
-489 -125 -27 -4 -52 -9 -56 -11 -3 -2 -24 -6 -46 -9 -22 -4 -51 -9 -64 -11
-14 -3 -43 -8 -65 -11 -22 -2 -69 -9 -105 -14 -336 -47 -765 -57 -1105 -25
-86 8 -165 16 -187 20 -13 2 -43 6 -68 9 -25 4 -56 8 -70 11 -14 2 -63 11
-110 19 -47 8 -128 24 -180 36 -83 17 -116 25 -190 44 -8 3 -33 9 -55 14 -22
5 -92 26 -155 45 -541 167 -1040 418 -1500 755 -68 50 -268 208 -280 222 -3 3
-43 39 -90 80 -202 176 -459 454 -643 694 -79 103 -297 419 -297 430 0 2 -17
33 -38 67 -113 188 -249 464 -332 674 -23 61 -48 124 -55 140 -12 28 -75 220
-108 330 -26 83 -84 324 -101 415 -9 47 -18 96 -21 110 -2 13 -7 42 -10 65 -3
22 -10 65 -15 95 -5 30 -12 84 -16 120 -3 36 -7 72 -9 80 -26 137 -26 875 0
1008 2 12 7 52 10 89 4 37 9 75 10 85 2 9 7 38 11 65 3 26 8 57 10 68 2 10 6
37 9 58 4 21 18 91 31 155 14 65 28 128 30 141 3 14 7 28 9 31 2 4 7 20 10 37
8 49 70 258 115 388 59 171 85 238 144 368 14 32 26 60 26 63 0 3 36 78 81
167 533 1064 1398 1887 2489 2367 131 58 153 66 275 110 66 23 129 46 140 50
38 16 220 68 340 98 161 41 168 42 305 68 47 9 94 18 105 20 11 2 36 6 55 9
19 3 68 9 110 15 41 5 102 13 135 16 33 3 74 8 90 9 17 2 89 7 160 11 72 3
131 7 132 8 4 3 323 -3 418 -8z"/>
<path d="M10577 12354 c-1 -1 -51 -5 -112 -8 -60 -4 -123 -9 -140 -11 -16 -2
-57 -6 -90 -10 -33 -3 -67 -8 -76 -11 -9 -2 -34 -6 -55 -9 -22 -2 -75 -11
-119 -20 -44 -9 -87 -18 -95 -20 -127 -25 -363 -97 -530 -161 -98 -38 -432
-198 -495 -237 -11 -6 -62 -39 -115 -71 -335 -207 -638 -475 -909 -801 -57
-69 -187 -251 -254 -355 -77 -120 -257 -458 -257 -483 0 -3 -13 -34 -29 -69
-24 -52 -107 -278 -115 -313 -2 -5 -9 -30 -16 -55 -8 -25 -14 -47 -15 -50 0
-3 -16 -64 -33 -137 -18 -73 -34 -145 -37 -160 -2 -15 -10 -68 -19 -118 -16
-91 -20 -127 -33 -290 -10 -122 -10 -457 1 -580 12 -150 13 -158 19 -190 4
-17 9 -50 12 -75 3 -25 8 -56 10 -70 3 -14 7 -36 10 -50 6 -34 24 -116 37
-170 25 -106 99 -355 118 -395 5 -11 20 -49 33 -85 75 -201 221 -482 360 -690
65 -98 186 -260 239 -321 13 -15 42 -49 65 -76 94 -111 276 -286 443 -427 51
-43 217 -164 290 -212 290 -189 609 -342 910 -435 108 -34 236 -69 265 -74 11
-2 49 -10 85 -18 79 -19 223 -43 305 -52 33 -4 70 -8 83 -10 137 -21 611 -21
744 0 13 2 50 6 83 10 100 10 380 63 455 86 19 5 44 12 55 14 77 17 355 114
487 171 246 105 560 290 778 458 588 455 1018 1057 1255 1761 51 153 123 452
140 580 3 28 8 59 10 70 5 21 10 74 22 220 15 177 8 535 -13 715 -4 37 -40
251 -48 294 -2 6 -6 29 -11 51 -4 22 -22 97 -41 166 -170 636 -503 1205 -979
1673 -111 109 -296 266 -415 351 -30 22 -56 43 -58 47 -2 5 -8 8 -13 8 -5 0
-31 15 -57 33 -113 79 -508 297 -539 297 -4 0 -21 7 -36 15 -65 34 -397 151
-482 170 -11 2 -45 11 -75 19 -30 8 -66 17 -80 20 -14 3 -50 10 -80 15 -30 6
-66 13 -80 16 -26 5 -63 11 -115 20 -16 2 -55 7 -85 11 -30 3 -66 7 -80 10
-45 7 -476 23 -483 18z m264 -1023 c227 -54 411 -224 482 -446 91 -283 -24
-599 -276 -759 -115 -73 -220 -101 -417 -110 -111 -6 -146 -9 -200 -22 -14 -3
-36 -8 -50 -11 -57 -10 -205 -65 -290 -108 -354 -178 -618 -516 -703 -900 -21
-95 -26 -143 -32 -280 -3 -64 -7 -121 -10 -125 -3 -4 -7 -25 -11 -46 -9 -56
-76 -190 -129 -256 -84 -107 -209 -187 -354 -227 -102 -28 -258 -23 -366 12
-101 33 -217 109 -290 190 -64 70 -127 189 -151 287 -40 157 -10 533 66 825
150 577 492 1088 975 1457 149 113 368 242 535 313 47 20 94 40 105 46 60 28
309 100 430 125 39 8 81 15 110 20 17 2 39 6 51 8 12 2 57 7 100 11 43 4 80 8
82 10 1 1 63 3 136 3 95 1 154 -4 207 -17z"/>
</g>
</svg>
